<?xml version="1.0" encoding="UTF-8" standalone="no"?>
<!-- Created with Inkscape (http://www.inkscape.org/) -->

<svg
   width="210mm"
   height="297mm"
   viewBox="0 0 210 297"
   version="1.1"
   id="svg5"
   xml:space="preserve"
   inkscape:version="1.2.2 (b0a8486541, 2022-12-01)"
   sodipodi:docname="ufo_new.svg"
   xmlns:inkscape="http://www.inkscape.org/namespaces/inkscape"
   xmlns:sodipodi="http://sodipodi.sourceforge.net/DTD/sodipodi-0.dtd"
   xmlns="http://www.w3.org/2000/svg"
   xmlns:svg="http://www.w3.org/2000/svg"><sodipodi:namedview
     id="namedview7"
     pagecolor="#505050"
     bordercolor="#eeeeee"
     borderopacity="1"
     inkscape:showpageshadow="0"
     inkscape:pageopacity="0"
     inkscape:pagecheckerboard="0"
     inkscape:deskcolor="#505050"
     inkscape:document-units="mm"
     showgrid="false"
     inkscape:zoom="1.4142136"
     inkscape:cx="409.76838"
     inkscape:cy="404.81864"
     inkscape:window-width="1902"
     inkscape:window-height="1033"
     inkscape:window-x="-9"
     inkscape:window-y="-9"
     inkscape:window-maximized="0"
     inkscape:current-layer="layer1" /><defs
     id="defs2" /><g
     inkscape:label="Layer 1"
     inkscape:groupmode="layer"
     id="layer1"><g
       id="g505"><path
         style="fill:#000000;stroke-width:0.100301"
         d="m 75.881206,167.04361 c -0.330995,-0.19751 -0.810966,-0.53444 -1.066603,-0.74873 -0.255637,-0.21431 -0.494638,-0.38963 -0.531113,-0.38963 -0.339768,0 -3.453608,-2.8984 -4.413024,-4.10767 l -0.574564,-0.7242 -2.023325,-0.39484 c -1.112828,-0.21716 -2.271571,-0.41938 -2.574983,-0.44941 -0.303411,-0.03 -1.347043,-0.23719 -2.31918,-0.4604 -0.972137,-0.22322 -1.982006,-0.4359 -2.244154,-0.47262 -0.262148,-0.0368 -1.181919,-0.25273 -2.043933,-0.48003 -0.862016,-0.22727 -1.725275,-0.43712 -1.918356,-0.46634 -0.850878,-0.1287 -5.788761,-1.62099 -7.973965,-2.40984 -1.521062,-0.5491 -4.537842,-1.7496 -5.109891,-2.03344 -0.217648,-0.10794 -0.470952,-0.21325 -0.5629,-0.23391 -0.09195,-0.0207 -0.4555,-0.19432 -0.807894,-0.38593 -0.352396,-0.19159 -0.9341,-0.49188 -1.292677,-0.66733 -0.888857,-0.43489 -2.573278,-1.42725 -3.651032,-2.15095 -0.490226,-0.32918 -0.906277,-0.59853 -0.924559,-0.59853 -0.07263,0 -2.893902,-2.25302 -2.992235,-2.38954 -0.05788,-0.0804 -0.511551,-0.54251 -1.008157,-1.02698 -2.519573,-2.45803 -4.648871,-6.49048 -5.383781,-8.98067 -0.431023,-1.46049 -0.488924,-1.69148 -0.640617,-2.55566 -0.231867,-1.32092 -0.0616,-3.02369 0.455975,-4.5601 0.111377,-0.33062 0.202504,-0.65087 0.202504,-0.71167 0,-0.2719 1.106963,-2.35403 1.784312,-3.35618 1.17263,-1.73493 2.327692,-3.02477 4.006445,-4.47393 1.769483,-1.52749 4.531627,-3.50323 6.646623,-4.75427 0.358577,-0.2121 0.763429,-0.45674 0.89967,-0.54364 0.901686,-0.57514 7.540563,-3.91931 7.780636,-3.91931 0.03233,0 0.315412,-0.11759 0.629081,-0.26131 0.313667,-0.14373 0.908823,-0.39599 1.322566,-0.56058 0.413744,-0.1646 0.955372,-0.39234 1.203618,-0.5061 0.248246,-0.11376 0.586763,-0.24117 0.752261,-0.28313 0.165497,-0.042 0.684557,-0.23171 1.153466,-0.42165 1.002028,-0.40589 1.438893,-0.55883 3.911757,-1.36949 2.832926,-0.9287 4.331636,-1.36999 5.837794,-1.71894 l 1.374381,-0.31842 0.296661,-0.96627 c 0.163165,-0.53145 0.319234,-1.05654 0.346821,-1.16687 0.07951,-0.31797 0.872025,-2.57651 1.020674,-2.90874 0.07405,-0.1655 0.272835,-0.64976 0.441749,-1.07614 0.322922,-0.81513 2.026986,-4.320815 2.475347,-5.0924 0.976405,-1.680296 2.264332,-3.667717 2.856074,-4.407257 0.157138,-0.196383 0.742883,-0.933623 1.301658,-1.638309 1.723477,-2.173524 3.869464,-4.284683 6.065009,-5.966581 0.441327,-0.338078 0.982955,-0.757114 1.203618,-0.931192 1.646835,-1.29916 5.894331,-3.658094 8.124417,-4.512062 0.330995,-0.126748 0.646945,-0.261714 0.70211,-0.299924 0.209481,-0.145092 3.473615,-1.191664 4.914771,-1.575811 1.919057,-0.511534 4.997813,-1.103972 6.419293,-1.235249 0.606826,-0.05604 1.486966,-0.145475 1.955876,-0.198739 0.46891,-0.05327 1.94275,-0.150262 3.27519,-0.215548 3.26454,-0.159953 6.69435,0.0036 11.01777,0.525527 1.21157,0.14625 4.65178,0.838401 6.01808,1.210807 1.68591,0.459516 2.49748,0.70562 2.60784,0.790815 0.0552,0.04258 0.43882,0.177392 0.85256,0.299572 0.41375,0.122181 1.0406,0.352569 1.39302,0.511974 0.35242,0.159405 0.70322,0.289827 0.77956,0.289827 0.0763,0 0.50562,0.18443 0.95395,0.409845 0.44833,0.225415 0.8874,0.424188 0.97571,0.441717 0.14143,0.02807 1.59541,0.786975 3.06932,1.602026 3.28384,1.815908 7.53928,5.299723 10.17357,8.328818 1.88404,2.166401 4.23354,5.422284 5.0328,6.974348 0.12688,0.246377 0.36993,0.673637 0.54011,0.949466 0.42349,0.686378 2.05702,4.00424 2.05702,4.17802 0,0.0772 0.0616,0.22949 0.13689,0.3383 0.15541,0.22464 0.97268,2.30806 1.37227,3.49826 l 0.26619,0.79288 1.34404,0.38709 c 0.73921,0.2129 1.4936,0.40911 1.6764,0.43602 0.18281,0.0269 0.747,0.18278 1.25377,0.34638 0.50677,0.1636 1.19221,0.36687 1.5232,0.45172 1.2923,0.33125 7.95626,2.54586 8.72301,2.89888 0.16727,0.077 0.59751,0.24174 0.95608,0.36605 0.35858,0.12432 0.90021,0.3367 1.20362,0.47196 0.30341,0.13526 0.7322,0.30482 0.95286,0.37681 0.40831,0.1332 1.32178,0.52193 2.63675,1.12208 0.40205,0.1835 0.75454,0.33363 0.78328,0.33363 0.0288,0 0.8959,0.41183 1.92699,0.91518 5.5545,2.71155 9.96107,5.75043 12.18901,8.40584 1.43654,1.71218 2.25694,3.11538 2.78339,4.76065 0.60466,1.88969 0.6037,3.43807 -0.004,5.78217 -0.30151,1.16384 -1.12073,2.97349 -1.57351,3.66632 -0.13018,0.19921 -0.2367,0.40045 -0.2367,0.44721 0,0.12579 -0.8613,1.52961 -1.51416,2.46792 -0.78009,1.12117 -3.2447,3.91307 -4.40362,4.9884 -1.43758,1.33389 -2.35218,2.08918 -3.86161,3.18898 -1.25692,0.91581 -3.93999,2.54944 -4.81509,2.93173 -0.27549,0.12035 -0.54659,0.26016 -0.60245,0.31068 -0.0559,0.0505 -0.64262,0.33453 -1.30392,0.63111 -0.6613,0.29658 -1.34458,0.61653 -1.51841,0.71101 -0.17385,0.0945 -0.36216,0.17178 -0.41849,0.17178 -0.0563,0 -0.59114,0.20139 -1.18846,0.44753 -1.67333,0.68957 -4.68129,1.77721 -6.35186,2.29677 -0.46891,0.14584 -1.32649,0.4267 -1.90573,0.62412 -4.28746,1.25354 -3.13193,0.89576 -5.97575,1.84198 -0.71286,0.23523 -1.40894,0.43698 -1.54686,0.44831 -0.13791,0.0117 -1.06026,0.25705 -2.04964,0.54605 -1.67761,0.49001 -1.80947,0.5482 -1.95588,0.86304 -0.61393,1.32028 -2.1844,3.40221 -3.56724,4.72904 -5.77194,4.82435 -11.76266,7.19642 -17.90384,8.98143 -0.24824,0.04 -1.3315,0.25467 -2.40723,0.47703 -1.07574,0.22237 -2.27183,0.42885 -2.65799,0.45883 -11.16965,1.15169 -13.31279,1.10921 -21.61496,0.36046 -0.46891,-0.0422 -1.19108,-0.12774 -1.604824,-0.19015 -0.413743,-0.0624 -1.100289,-0.13579 -1.525656,-0.16308 -0.425368,-0.0273 -1.422384,-0.16327 -2.215588,-0.30218 l -1.442191,-0.25256 c -10.25553,-2.17668 -14.762247,-4.66603 -18.336815,-6.80196 z m 39.633024,6.23359 c 1.11253,-0.0424 2.55666,-0.201 3.49189,-0.30114 0.93523,-0.10012 1.83795,-0.18246 2.00603,-0.18295 0.49296,-0.001 2.5049,-0.32745 3.96661,-0.64272 0.74474,-0.16065 1.55246,-0.31468 1.79494,-0.34234 0.24248,-0.0277 1.08876,-0.2339 1.88063,-0.45836 0.79187,-0.22443 1.58647,-0.43752 1.76577,-0.47352 0.68723,-0.13795 4.65672,-1.62017 5.64197,-2.10673 1.83477,-0.90608 2.33618,-1.16719 3.14579,-1.63809 2.03581,-1.1841 4.37774,-3.02724 6.02953,-4.74531 0.6488,-0.67484 1.50852,-1.80239 2.12414,-2.78578 l 0.31998,-0.51113 -0.44359,0.0816 c -0.24397,0.0448 -0.55643,0.10281 -0.69435,0.12865 -0.13791,0.0259 -1.01305,0.23377 -1.94475,0.46197 -0.93171,0.22818 -1.92469,0.44452 -2.20663,0.48077 -0.28195,0.0362 -1.1671,0.21499 -1.967,0.39725 -0.79991,0.18226 -1.79289,0.38769 -2.20664,0.45652 -0.41374,0.0689 -1.79038,0.3112 -3.05919,0.53858 -1.26881,0.22739 -2.78086,0.46339 -3.3601,0.52445 -0.57924,0.061 -1.7302,0.21314 -2.55769,0.33796 -1.75973,0.26547 -4.33065,0.54146 -6.69306,0.71851 -0.92289,0.0692 -2.72832,0.20652 -4.01206,0.3052 -1.45397,0.11179 -4.65166,0.20341 -8.48048,0.24304 -6.22147,0.0644 -9.53868,-0.0242 -14.365228,-0.38359 -1.296397,-0.0965 -3.198859,-0.2234 -4.227695,-0.28195 -2.601705,-0.14803 -11.062868,-1.10161 -14.578827,-1.64307 -0.772321,-0.11893 -1.742738,-0.24602 -2.156481,-0.28244 -0.413744,-0.0364 -1.376366,-0.17626 -2.139161,-0.31079 -0.762794,-0.1345 -1.402408,-0.22647 -1.421365,-0.20434 -0.08302,0.0968 2.093103,2.23137 2.958717,2.90211 0.524075,0.4061 1.133406,0.88246 1.354069,1.05862 0.220664,0.17614 0.694588,0.4919 1.053166,0.70171 0.358577,0.20981 0.674527,0.41803 0.70211,0.46273 0.06447,0.10444 1.865128,1.11467 2.540953,1.42552 0.284757,0.13099 0.562988,0.27869 0.618292,0.32823 0.177393,0.15892 2.759256,1.26067 4.363364,1.86197 1.734661,0.65022 4.147227,1.41133 5.366127,1.69289 0.441327,0.10199 1.34404,0.31373 2.006029,0.4706 0.66199,0.15687 1.542135,0.34025 1.955878,0.40746 0.413744,0.0672 1.519567,0.25918 2.457386,0.42656 0.937818,0.16739 2.314456,0.35341 3.059194,0.41339 0.744742,0.06 1.940832,0.16666 2.657992,0.23703 3.48778,0.34233 8.62353,0.40721 13.25374,0.23093 z m 1.13951,-10.76112 c 3.77965,-0.17341 5.81798,-0.32956 8.62593,-0.66077 1.35156,-0.15943 2.99901,-0.34017 3.661,-0.40165 0.66199,-0.0615 1.65497,-0.18476 2.20663,-0.27396 0.55166,-0.0892 1.72519,-0.2789 2.60784,-0.42154 0.88265,-0.14265 2.43983,-0.4173 3.4604,-0.61033 1.02057,-0.19301 2.19409,-0.40607 2.60784,-0.47345 1.5024,-0.1751 1.24325,-0.31676 4.61237,-0.98381 0.52326,-0.0946 1.49368,-0.32405 2.15648,-0.50993 0.66281,-0.18587 1.52106,-0.39671 1.90722,-0.46855 0.38616,-0.0719 1.31144,-0.30893 2.05618,-0.52689 0.74474,-0.21795 1.53462,-0.43192 1.75528,-0.4755 0.22066,-0.0435 0.9654,-0.25556 1.65497,-0.47107 0.68957,-0.21553 1.41175,-0.42247 1.60483,-0.4599 0.19308,-0.0375 0.91319,-0.25563 1.60024,-0.4849 0.68707,-0.22927 1.34154,-0.43043 1.45438,-0.447 0.11285,-0.0166 0.61139,-0.17438 1.10789,-0.35066 0.49649,-0.17629 1.28636,-0.4395 1.75527,-0.58494 0.46891,-0.14542 1.23622,-0.40928 1.70513,-0.58635 0.4689,-0.17707 0.95025,-0.33704 1.06966,-0.35548 3.33901,-1.34956 10.01431,-4.12596 13.43529,-6.3938 0.28209,-0.21603 0.84628,-0.64479 1.25377,-0.95283 2.98144,-2.25386 6.0283,-5.52184 7.60779,-8.15993 0.32762,-0.5472 0.68967,-1.06488 0.80456,-1.21375 0.11489,-0.14887 0.36828,-0.62279 0.56309,-1.05316 l 0.35422,-0.7825 -0.7337,0.71205 c -1.06557,1.03413 -2.31021,2.03952 -3.34153,2.6992 -0.49649,0.31758 -1.06069,0.68092 -1.25377,0.80742 -0.19308,0.12651 -0.57673,0.35137 -0.85256,0.49969 -2.02246,1.08755 -2.32815,1.2434 -3.82838,1.95187 -0.5058,0.23886 -0.95715,0.43164 -1.00301,0.42841 -0.0459,-0.003 -0.24583,0.077 -0.44439,0.17829 -2.1292,1.08623 -12.4531,4.62328 -16.08843,5.51202 -0.38616,0.0944 -1.1986,0.31091 -1.80543,0.48112 -2.06107,0.57812 -6.45697,1.64606 -7.92381,1.92501 -0.49649,0.0944 -1.53461,0.31162 -2.30693,0.48268 -2.35663,0.52195 -8.21223,1.60812 -11.43437,2.12097 -0.71715,0.11414 -1.82298,0.29478 -2.45738,0.4014 -0.63441,0.10663 -1.37915,0.21185 -1.65498,0.23384 -0.27583,0.022 -1.72017,0.20348 -3.20965,0.40332 -1.48947,0.19984 -3.24976,0.41037 -3.91175,0.46783 -0.66199,0.0575 -1.85809,0.17179 -2.65799,0.25407 -2.56827,0.26414 -5.0185,0.44216 -6.87065,0.49918 -0.99298,0.0306 -2.75327,0.0987 -3.91176,0.15149 -2.71122,0.12346 -11.603,0.1262 -14.393252,0.004 -1.186065,-0.0518 -2.968923,-0.12035 -3.961907,-0.15242 -2.40463,-0.0777 -4.468018,-0.21599 -7.673061,-0.51439 -1.461894,-0.13611 -3.289888,-0.28914 -4.062209,-0.34008 -0.772321,-0.0509 -2.487476,-0.2333 -3.811455,-0.40526 -1.323979,-0.17197 -2.836024,-0.34875 -3.360099,-0.39284 -1.040115,-0.0875 -4.863177,-0.62991 -7.873664,-1.11707 -1.04815,-0.16961 -2.221677,-0.35385 -2.607837,-0.40941 -0.386161,-0.0556 -1.630933,-0.27737 -2.76616,-0.49289 -1.135228,-0.2155 -2.149201,-0.39183 -2.253275,-0.39183 -0.671225,0 -9.908478,-2.05992 -12.483168,-2.78377 -0.689573,-0.19386 -1.366608,-0.37307 -1.504522,-0.39823 -0.137915,-0.0252 -0.837517,-0.22482 -1.554673,-0.44367 -6.837407,-2.0865 -12.086623,-4.60829 -14.889355,-7.15304 l -0.445947,-0.4049 0.238898,0.4012 c 0.839292,1.40952 2.010489,3.66646 3.879523,5.61607 4.114656,3.89666 8.340016,6.04023 14.676862,8.66261 0.165855,0.0341 0.538464,0.16331 0.828022,0.28712 0.51745,0.22128 1.469311,0.55396 1.84162,0.64367 0.104153,0.0251 0.74148,0.23076 1.416282,0.45703 0.674803,0.22626 1.374406,0.43901 1.554673,0.47277 0.180267,0.0337 0.948121,0.24716 1.706341,0.47427 0.758221,0.2271 1.548095,0.43797 1.755275,0.46862 0.207182,0.0306 0.963457,0.20931 1.680612,0.39709 1.448174,0.37914 1.932759,0.48735 2.454881,0.54818 0.194459,0.0226 0.917756,0.1695 1.607328,0.32635 0.689572,0.15684 1.75026,0.37161 2.357084,0.47726 0.606824,0.10561 2.118868,0.37797 3.360099,0.60516 1.24123,0.22719 2.68581,0.46084 3.210177,0.51924 0.524367,0.0583 1.743029,0.23788 2.708139,0.39885 0.965109,0.16097 2.206101,0.34718 2.757759,0.4138 0.551658,0.0666 1.995999,0.25147 3.209647,0.41077 2.47148,0.3244 4.633185,0.57048 6.720197,0.76505 0.772321,0.072 2.735722,0.25956 4.363113,0.41685 2.7225,0.26311 4.80794,0.3786 11.534672,0.63884 2.95701,0.11437 10.17239,0.0557 13.84159,-0.11272 z m -3.30995,-8.79768 c 2.687,-0.12097 4.86862,-0.25944 7.07126,-0.44881 0.93782,-0.0806 2.18835,-0.17096 2.77897,-0.20071 0.9914,-0.0499 3.58356,-0.33865 6.23867,-0.69482 0.60161,-0.0807 1.12067,-0.14372 1.15347,-0.14005 0.0328,0.004 0.17923,10e-4 0.3254,-0.005 l 0.26577,-0.0119 -0.30117,-0.82748 c -0.16566,-0.45512 -0.45337,-1.21114 -0.63936,-1.68005 -0.31702,-0.79919 -0.57657,-1.488 -1.24722,-3.30995 -0.48048,-1.30528 -1.2015,-3.14314 -1.40634,-3.58468 -0.10849,-0.23386 -0.19724,-0.46598 -0.19724,-0.51584 0,-0.0499 -0.3658,-1.0095 -0.81289,-2.13251 -0.44708,-1.12299 -0.99046,-2.49318 -1.20751,-3.04483 -0.21706,-0.55166 -0.57126,-1.43181 -0.78714,-1.95588 -0.54964,-1.33434 -1.67978,-4.14554 -1.95564,-4.86462 -0.12698,-0.331 -0.51127,-1.27885 -0.85398,-2.10633 -0.34271,-0.82749 -0.71075,-1.7302 -0.81787,-2.00603 -0.10711,-0.27583 -0.25643,-0.63692 -0.33183,-0.80241 -0.0754,-0.1655 -0.25954,-0.60815 -0.40922,-0.98368 l -0.27216,-0.68277 -3.22175,0.081 c -4.19637,0.10546 -12.37027,0.10325 -17.615019,-0.005 l -4.16251,-0.0857 -0.410236,1.18904 c -0.22563,0.65396 -0.558456,1.61782 -0.739612,2.14189 -0.181157,0.52408 -0.408464,1.22368 -0.505126,1.55467 -0.09666,0.331 -0.324267,1.0306 -0.505786,1.55468 -0.75299,2.174 -1.024643,2.9826 -1.145683,3.41025 -0.07026,0.24824 -0.430953,1.30893 -0.801534,2.35708 -0.37058,1.04815 -0.712876,2.0637 -0.760658,2.25678 -0.04778,0.19308 -0.247449,0.77985 -0.443707,1.30392 -0.196258,0.52408 -0.378086,1.0686 -0.404061,1.21007 -0.02598,0.14145 -0.206518,0.68308 -0.401205,1.20362 -0.194689,0.52052 -0.377618,1.0757 -0.406512,1.23373 -0.02889,0.15803 -0.122767,0.45141 -0.208607,0.65196 -0.08584,0.20055 -0.491533,1.38019 -0.901542,2.62142 -0.410008,1.24123 -0.789034,2.34705 -0.842279,2.45739 -0.146275,0.3031 -1.213449,3.47205 -1.271763,3.77647 -0.0658,0.34349 0.0077,0.3636 1.573743,0.43047 0.689572,0.0294 1.795395,0.099 2.457385,0.1545 3.246977,0.27237 8.040644,0.51766 12.587832,0.6441 1.87937,0.0523 9.20757,-0.0392 11.53466,-0.14398 z m -29.009333,-1.53188 c 0.124707,-0.34772 0.246735,-0.73605 0.271176,-0.86296 0.02444,-0.12691 0.204646,-0.64422 0.400458,-1.14959 0.195811,-0.50535 0.37741,-1.03101 0.403554,-1.16814 0.02614,-0.13711 0.208494,-0.68812 0.405222,-1.22447 0.196729,-0.53634 0.375092,-1.0554 0.396361,-1.15346 0.02127,-0.0981 0.214304,-0.67479 0.428965,-1.28161 0.562854,-1.59114 1.1234,-3.24004 1.278655,-3.76131 0.232866,-0.78184 5.922021,-17.70059 5.987906,-17.8072 0.04083,-0.0661 -0.892852,-0.16376 -2.670687,-0.27944 -1.503408,-0.0978 -3.361637,-0.24078 -4.129395,-0.3177 -0.767759,-0.0769 -2.072959,-0.18976 -2.900446,-0.25078 -0.827487,-0.061 -2.407235,-0.24558 -3.510551,-0.41012 -1.103316,-0.16455 -2.367114,-0.34228 -2.808441,-0.39495 -0.770694,-0.092 -2.03642,-0.34074 -3.309948,-0.65048 -0.330994,-0.0805 -0.792147,-0.17015 -1.024786,-0.19921 -0.232637,-0.0291 -0.932239,-0.20528 -1.554672,-0.3916 -0.622432,-0.18632 -1.368153,-0.39749 -1.657157,-0.46927 l -0.52546,-0.1305 -1.430418,1.39536 c -0.786729,0.76745 -2.468537,2.41371 -3.73735,3.65835 -3.344497,3.28079 -7.630659,7.39137 -13.640997,13.0822 -1.103316,1.04466 -2.75197,2.62431 -3.663676,3.51031 -0.911706,0.886 -2.158289,2.06935 -2.770184,2.62965 l -1.112539,1.01875 0.463252,0.12009 c 0.254788,0.066 0.801768,0.22398 1.215512,0.35094 0.413743,0.12696 1.045642,0.3066 1.40422,0.39919 0.358578,0.0926 1.216155,0.32195 1.905728,0.50968 0.689572,0.18773 1.479446,0.38385 1.755275,0.43582 0.275829,0.052 1.155974,0.25214 1.955878,0.44484 2.076893,0.50031 8.312256,1.78938 9.328035,1.92843 0.248246,0.034 1.421773,0.23561 2.607838,0.44806 1.186064,0.21245 2.337024,0.40494 2.557687,0.42775 0.220663,0.0228 1.439326,0.20281 2.708139,0.39998 1.268813,0.19717 3.209646,0.47854 4.312962,0.62526 1.103316,0.14672 2.457386,0.32747 3.009044,0.40167 0.551658,0.0742 1.386667,0.16238 1.855577,0.19594 0.468909,0.0336 1.755275,0.16731 2.858591,0.2972 2.923817,0.34421 2.666287,0.37724 2.936672,-0.37668 z m 50.072643,-0.47164 c 1.07573,-0.16792 2.76832,-0.44652 3.7613,-0.61909 0.99299,-0.17259 2.09881,-0.35612 2.45739,-0.40784 0.35858,-0.0517 1.55467,-0.26813 2.65799,-0.48091 1.10331,-0.21277 2.27684,-0.43212 2.60784,-0.48747 0.33099,-0.0553 1.18857,-0.23318 1.90572,-0.3952 0.71716,-0.16203 1.51991,-0.32522 1.7839,-0.36266 0.264,-0.0374 0.91846,-0.18085 1.45438,-0.31869 0.53591,-0.13783 1.3806,-0.33158 1.8771,-0.43055 0.96765,-0.19289 2.71294,-0.62415 4.81447,-1.18965 0.71715,-0.19298 1.55216,-0.40708 1.85557,-0.47579 0.30342,-0.0687 0.86761,-0.22463 1.25377,-0.34652 0.38616,-0.12187 0.92875,-0.27848 1.20576,-0.348 1.05135,-0.26388 4.28035,-1.27437 4.81233,-1.50599 l 0.3009,-0.13101 -3.5607,-3.55266 c -1.95838,-1.95397 -4.86963,-4.78907 -6.46944,-6.30022 -1.59981,-1.51116 -3.54064,-3.36532 -4.31296,-4.12034 -1.33332,-1.30346 -9.27797,-8.69839 -9.94247,-9.2545 l -0.31353,-0.26238 -0.79212,0.23709 c -0.43567,0.1304 -0.97162,0.26393 -1.191,0.29672 -0.21938,0.0328 -1.09847,0.21846 -1.95354,0.41258 -0.85507,0.19413 -1.78035,0.37955 -2.05618,0.41204 -0.27583,0.0325 -1.29138,0.1867 -2.25678,0.34269 -0.9654,0.15599 -2.2292,0.33276 -2.80844,0.39281 -3.46676,0.35942 -6.86524,0.66343 -8.47548,0.75817 -0.55165,0.0324 -1.23433,0.0829 -1.51705,0.11206 l -0.51406,0.0531 0.42369,1.07259 c 0.23303,0.58992 0.54334,1.33345 0.68958,1.65229 0.14624,0.31884 0.26589,0.63182 0.26589,0.69552 0,0.0637 0.0896,0.30081 0.19901,0.52692 0.20209,0.41747 1.02802,2.41734 1.45117,3.51383 0.12774,0.331 0.48977,1.23371 0.80451,2.00603 0.31474,0.77232 0.67535,1.67503 0.80135,2.00603 0.48408,1.27158 2.00248,5.09283 2.7102,6.8205 0.20337,0.49649 0.40426,1.03812 0.44641,1.20362 0.0421,0.16549 0.16859,0.50401 0.28099,0.75226 0.1124,0.24824 0.31808,0.76948 0.45706,1.15829 0.13897,0.38882 0.38763,1.04328 0.55258,1.45437 0.40547,1.01056 0.89622,2.29451 1.22495,3.20482 0.65334,1.80926 0.83167,2.20665 0.99107,2.20855 0.0885,0.001 1.04114,-0.13546 2.11687,-0.30337 z m -91.775826,-6.60626 c 0,-0.048 0.72164,-0.75017 1.603645,-1.56047 0.882005,-0.81029 2.048263,-1.91073 2.591685,-2.44541 0.543423,-0.53466 3.262296,-3.13864 6.04194,-5.7866 5.694662,-5.42488 12.219905,-11.70474 14.519154,-13.97318 1.499474,-1.47937 1.529796,-1.51764 1.253769,-1.58213 -0.427426,-0.0999 -2.39094,-1.1092 -2.870096,-1.47535 -0.984888,-0.75261 -1.202658,-0.9519 -1.624714,-1.48682 -0.481189,-0.60986 -0.953585,-1.81769 -0.953585,-2.43813 0,-0.25965 -0.04363,-0.35845 -0.158301,-0.35845 -0.08707,0 -0.888223,0.1563 -1.780351,0.34734 -0.892127,0.19103 -1.82516,0.37486 -2.073406,0.40852 -0.448915,0.0609 -1.527205,0.28917 -3.059195,0.64776 -0.441326,0.10329 -0.960386,0.21045 -1.153466,0.23813 -0.728237,0.10438 -5.778778,1.34258 -7.923815,1.94262 -0.689572,0.19289 -1.502014,0.41097 -1.805426,0.48461 -0.303412,0.0736 -0.980447,0.27596 -1.504522,0.4496 -0.524075,0.17364 -1.058452,0.33029 -1.187505,0.3481 -0.129052,0.0178 -0.68293,0.19707 -1.23084,0.39833 -0.54791,0.20127 -1.100717,0.38489 -1.228461,0.40805 -0.127743,0.0232 -0.657121,0.20327 -1.176393,0.40024 -0.519274,0.19696 -1.169812,0.4277 -1.445641,0.51274 -0.275829,0.085 -0.546643,0.18906 -0.601809,0.23115 -0.05517,0.0421 -0.483386,0.22271 -0.951599,0.4014 -0.932481,0.35586 -1.146231,0.50341 -2.729471,1.8841 -1.333235,1.16266 -2.107174,1.99579 -3.051181,3.28454 -0.404089,0.55166 -0.820211,1.11586 -0.924716,1.25377 -0.104504,0.13791 -0.41578,0.70211 -0.691723,1.25377 -0.465098,0.92981 -0.581574,1.24909 -1.006251,2.75829 -0.103301,0.36711 -0.155789,0.98786 -0.156898,1.85557 -0.0016,1.22059 0.01831,1.35597 0.310873,2.1182 0.714636,1.86189 2.5556,3.77134 5.130123,5.32096 1.00605,0.60555 4.290136,2.25034 4.873255,2.4407 0.220663,0.072 0.55918,0.21285 0.752261,0.31293 0.19308,0.10008 0.734708,0.32416 1.203617,0.49796 2.798969,1.03743 3.009043,1.10077 3.009043,0.90716 z M 37.7359,136.8612 c -0.873033,-0.19358 -1.538241,-0.78745 -1.900217,-1.69643 -0.144322,-0.36241 -0.176151,-1.54568 -0.05045,-1.8756 0.105639,-0.27726 0.545022,-0.93984 0.739397,-1.11499 1.381426,-1.24479 3.566733,-0.84805 4.375278,0.79434 0.405771,0.82424 0.407403,1.62908 0.0049,2.45144 -0.378888,0.77426 -1.07883,1.31119 -1.906948,1.46284 -0.521226,0.0954 -1.792423,-0.0216 -1.26203,-0.0216 z m 1.666971,-0.83116 c 0.700918,-0.38628 1.073247,-0.98871 1.089797,-1.76331 0.01332,-0.62356 -0.148213,-1.07339 -0.529617,-1.47484 -0.383511,-0.40368 -0.624677,-0.53601 -1.152254,-0.63225 -1.268821,-0.23147 -2.466866,0.76187 -2.466866,2.04536 0,0.54928 0.334005,1.28895 0.712359,1.57753 0.754529,0.5755 1.591249,0.66376 2.346581,0.24751 z m 134.272249,5.91488 c 0.33099,-0.14018 0.67075,-0.25595 0.75502,-0.25726 0.0843,-0.001 0.24223,-0.0625 0.35105,-0.13607 0.10882,-0.0735 0.62663,-0.30347 1.15071,-0.51098 2.03128,-0.80432 5.37023,-2.47847 6.87065,-3.44495 1.46332,-0.94259 1.92897,-1.2749 2.70814,-1.93266 1.87373,-1.58177 2.81975,-2.71324 3.35093,-4.00786 0.31729,-0.77331 0.35026,-0.94581 0.3547,-1.85558 0.008,-1.56579 -0.46739,-2.90781 -1.65084,-4.66402 -1.40531,-2.08543 -3.29998,-3.82355 -6.4179,-5.88758 -2.35282,-1.55753 -2.64413,-1.70766 -3.94418,-2.03253 -0.61657,-0.15407 -1.54984,-0.39368 -2.07391,-0.53246 -0.90969,-0.24088 -3.47805,-0.83392 -5.51658,-1.27378 -4.67363,-1.00845 -15.96016,-3.0782 -16.14906,-2.96146 -0.0549,0.0339 -0.0998,0.23553 -0.0998,0.44802 0,1.25322 -1.04819,2.94896 -2.48775,4.02464 -0.3143,0.23484 -0.73068,0.54852 -0.9253,0.69705 -0.60065,0.4584 -3.6059,1.95468 -4.12783,2.05519 -0.19717,0.038 -1.31768,0.45765 -1.80816,0.67723 l -0.27176,0.12167 1.37023,1.25376 c 2.6967,2.46749 6.01675,5.56744 7.34786,6.86073 0.74474,0.72358 2.18908,2.10335 3.20965,3.06616 5.98051,5.64204 12.43738,11.99392 12.43738,12.23513 3.26395,-1.17236 3.80258,-1.21505 5.56675,-1.94239 z m -57.06121,-19.01741 c 6.0571,-0.22017 11.63904,-0.63805 15.3358,-1.14809 0.93782,-0.12939 1.97964,-0.26072 2.31516,-0.29184 1.09408,-0.10149 5.28095,-0.93943 6.62802,-1.32651 0.45033,-0.1294 0.96357,-0.26078 1.14056,-0.29196 0.5309,-0.0935 3.42071,-1.05739 3.94164,-1.31468 0.26657,-0.13166 0.52975,-0.23938 0.58485,-0.23938 0.10591,0 1.04488,-0.46066 2.02456,-0.99323 1.25465,-0.68207 2.54246,-1.79028 3.19561,-2.74995 0.54008,-0.79353 0.71952,-1.35779 0.65567,-2.06187 -0.0667,-0.73534 -0.69037,-3.31406 -1.20383,-4.97736 -0.22139,-0.71716 -0.39659,-1.31514 -0.38932,-1.32886 0.007,-0.0137 -0.0799,-0.26196 -0.19375,-0.55166 -0.11381,-0.28969 -0.36511,-0.95537 -0.55847,-1.47929 -0.19334,-0.52391 -0.4545,-1.15759 -0.58036,-1.40817 -0.12586,-0.25057 -0.28064,-0.61179 -0.34396,-0.8027 -0.14565,-0.43909 -1.83433,-3.804651 -2.09697,-4.17927 -0.10804,-0.154108 -0.27683,-0.451982 -0.37508,-0.661943 -0.27153,-0.580208 -2.31986,-3.608405 -3.16406,-4.677651 -3.72968,-4.723948 -8.20245,-8.412975 -13.33554,-10.998803 -1.38505,-0.69773 -2.98576,-1.444403 -3.09648,-1.444403 -0.0485,0 -0.33859,-0.110729 -0.6446,-0.246063 -0.71685,-0.317025 -3.5104,-1.262281 -4.03228,-1.36441 -0.22067,-0.04318 -1.01054,-0.237822 -1.75528,-0.432534 -3.65937,-0.956741 -6.98701,-1.352953 -12.09187,-1.439738 -3.06895,-0.05218 -6.38193,0.0964 -8.46992,0.37984 -4.164328,0.565298 -9.233985,1.96402 -12.437384,3.431483 -1.103921,0.505702 -2.920808,1.426319 -3.711154,1.880446 -3.899003,2.240333 -7.84202,5.611355 -10.367926,8.863902 -0.338295,0.435615 -0.740534,0.928908 -0.893864,1.096206 -0.216102,0.235789 -1.413065,1.943231 -1.900501,2.711024 -0.345876,0.544814 -0.980214,1.660834 -0.980214,1.724538 0,0.04384 -0.06199,0.150959 -0.137761,0.238052 -0.278656,0.320301 -1.947394,3.745054 -2.423046,4.972824 -0.149604,0.38616 -0.330975,0.83751 -0.403046,1.00301 -0.143614,0.32978 -0.840626,2.42225 -1.342889,4.03143 -0.175511,0.56231 -0.402777,1.41989 -0.505036,1.90573 -0.102258,0.48584 -0.304832,1.42497 -0.450163,2.08696 -0.325717,1.48366 -0.460685,3.86127 -0.248889,4.38448 0.170816,0.42197 0.777926,1.24422 1.211775,1.64119 1.501191,1.37356 4.02222,2.47848 7.709305,3.37882 1.928791,0.47099 4.683315,1.00691 6.068237,1.18065 0.441327,0.0554 1.479447,0.18682 2.306934,0.29213 4.209182,0.53568 10.907902,0.99364 17.552754,1.19999 3.796398,0.11789 14.303338,0.1225 17.462768,0.008 z m -74.233389,-4.99306 c 0.717155,-0.22168 1.439326,-0.43198 1.604823,-0.46734 0.165497,-0.0354 0.713667,-0.19686 1.218154,-0.35888 0.504488,-0.16203 1.31693,-0.38768 1.805426,-0.50144 0.488497,-0.11377 1.257256,-0.3193 1.708354,-0.45675 0.451097,-0.13745 0.955935,-0.26709 1.12186,-0.28809 0.165927,-0.021 1.060645,-0.2228 1.988264,-0.44845 2.504702,-0.60928 4.637224,-1.09367 5.14698,-1.1691 0.248246,-0.0367 1.015552,-0.19197 1.705124,-0.34498 0.689573,-0.15301 1.975939,-0.39953 2.858592,-0.54781 0.882653,-0.14829 1.635642,-0.29956 1.67331,-0.33616 0.03767,-0.0366 0.141088,-0.54046 0.229824,-1.1197 0.08873,-0.57924 0.232232,-1.41425 0.31888,-1.85557 0.27804,-1.41614 0.275698,-1.39088 0.123727,-1.33407 -0.07651,0.0286 -0.590466,0.15372 -1.142124,0.27803 -2.088714,0.47067 -9.001885,2.7041 -10.050239,3.24691 -0.17655,0.0914 -0.389606,0.16621 -0.473459,0.16621 -0.08385,0 -0.390762,0.108 -0.682016,0.24001 -0.291255,0.132 -1.00348,0.43221 -1.582721,0.66713 -0.579241,0.23493 -1.142196,0.48801 -1.251011,0.56241 -0.108814,0.0744 -0.259917,0.13527 -0.335784,0.13527 -0.280513,0 -6.206575,2.94458 -7.540637,3.74684 -0.303412,0.18247 -0.924007,0.54674 -1.3791,0.8095 -0.455094,0.26276 -0.852648,0.51853 -0.883455,0.56838 -0.03081,0.0498 0.522086,-0.10736 1.22865,-0.34933 0.706563,-0.24198 1.871422,-0.62133 2.588578,-0.84302 z m 131.946559,-2.47926 c 0,-0.0283 -0.25953,-0.16869 -0.57674,-0.31204 -1.4955,-0.6758 -3.84625,-1.6927 -4.38819,-1.89827 -0.33099,-0.12555 -1.25627,-0.48235 -2.05617,-0.79289 -2.45379,-0.95261 -9.31353,-3.26438 -9.68642,-3.26438 -0.0549,0 -0.66255,-0.17848 -1.35021,-0.39664 -0.68767,-0.21815 -1.38978,-0.42063 -1.56025,-0.44996 -0.17048,-0.0293 -0.68954,-0.16276 -1.15347,-0.29652 -1.19575,-0.34476 -1.25121,-0.34982 -1.21096,-0.11064 0.0186,0.11033 0.16414,0.65195 0.32349,1.20361 0.27903,0.96596 0.3674,1.37684 0.3883,1.80543 0.005,0.11033 0.0481,0.2611 0.095,0.33505 0.0899,0.1418 1.04535,0.35153 2.34471,0.51467 0.74564,0.0936 1.99455,0.31602 6.84489,1.2189 3.9521,0.73568 9.10172,1.80052 10.83256,2.23996 0.99125,0.25166 1.15347,0.28031 1.15347,0.20372 z M 67.309358,144.64227 c -0.873033,-0.19358 -1.538241,-0.78745 -1.900217,-1.69643 -0.144322,-0.36241 -0.176151,-1.54568 -0.05045,-1.8756 0.105639,-0.27726 0.545022,-0.93984 0.739397,-1.11499 1.381426,-1.24479 3.566733,-0.84805 4.375278,0.79434 0.405771,0.82424 0.407403,1.62908 0.0049,2.45144 -0.378888,0.77426 -1.07883,1.31119 -1.906948,1.46284 -0.521226,0.0954 -1.792423,-0.0216 -1.26203,-0.0216 z m 1.666971,-0.83116 c 0.700918,-0.38628 1.073247,-0.98871 1.089797,-1.76331 0.01332,-0.62356 -0.148213,-1.07339 -0.529617,-1.47484 -0.383511,-0.40368 -0.624677,-0.53601 -1.152254,-0.63225 -1.268821,-0.23147 -2.466866,0.76187 -2.466866,2.04536 0,0.54928 0.334005,1.28895 0.712359,1.57753 0.754529,0.5755 1.591249,0.66376 2.346581,0.24751 z m 38.408561,5.3002 c -0.89424,0 -1.53824,-0.78745 -1.90022,-1.69643 -0.14432,-0.36241 -0.17615,-1.54568 -0.0504,-1.8756 0.10564,-0.27726 0.54502,-0.93984 0.7394,-1.11499 1.38142,-1.24479 3.56673,-0.84805 4.37528,0.79434 0.40577,0.82424 0.4074,1.62908 0.005,2.45144 -0.37889,0.77426 -1.07883,1.31119 -1.90695,1.46284 -0.52123,0.0954 -1.79242,-0.0216 -1.26203,-0.0216 z m 1.66697,-0.83116 c 0.70092,-0.38628 1.07325,-0.98871 1.0898,-1.76331 0.0133,-0.62356 -0.14822,-1.07339 -0.52962,-1.47484 -0.38351,-0.40368 -0.62468,-0.53601 -1.15225,-0.63225 -1.26883,-0.23147 -2.46687,0.76187 -2.46687,2.04536 0,0.54928 0.334,1.28895 0.71236,1.57753 0.75453,0.5755 1.59125,0.66376 2.34658,0.24751 z m 35.96995,-3.91025 c -0.89424,0 -1.53824,-0.78745 -1.90022,-1.69643 -0.14432,-0.36241 -0.17615,-1.54568 -0.0504,-1.8756 0.10564,-0.27726 0.54502,-0.93984 0.7394,-1.11499 1.38142,-1.24479 3.56673,-0.84805 4.37528,0.79434 0.40577,0.82424 0.4074,1.62908 0.005,2.45144 -0.37889,0.77426 -1.07883,1.31119 -1.90695,1.46284 -0.52123,0.0954 -1.79243,-0.0216 -1.26203,-0.0216 z m 1.66697,-0.83116 c 0.70092,-0.38628 1.07325,-0.98871 1.0898,-1.76331 0.0133,-0.62356 -0.14822,-1.07339 -0.52962,-1.47484 -0.38351,-0.40368 -0.62468,-0.53601 -1.15226,-0.63225 -1.26882,-0.23147 -2.46686,0.76187 -2.46686,2.04536 0,0.54928 0.334,1.28895 0.71236,1.57753 0.75453,0.5755 1.59125,0.66376 2.34658,0.24751 z m 26.367,-11.65223 c -0.14432,-0.36241 -0.17615,-1.54568 -0.0505,-1.8756 0.10564,-0.27726 0.54502,-0.93984 0.73939,-1.11499 1.38143,-1.24479 3.56674,-0.84805 4.37528,0.79434 0.40577,0.82424 0.40741,1.62908 0.005,2.45144 -0.37889,0.77426 -1.07883,1.31119 -1.90695,1.46284 -0.93405,0.17106 -2.65362,-0.32344 -3.16222,-1.71803 z m 3.56719,0.86527 c 0.70091,-0.38628 1.07324,-0.98871 1.08979,-1.76331 0.0133,-0.62356 -0.14821,-1.07339 -0.52961,-1.47484 -0.38352,-0.40368 -0.62468,-0.53601 -1.15226,-0.63225 -1.26882,-0.23147 -2.46686,0.76187 -2.46686,2.04536 0,0.54928 0.334,1.28895 0.71235,1.57753 0.75453,0.5755 1.59125,0.66376 2.34659,0.24751 z"
         id="path302"
         sodipodi:nodetypes="cssscssssscscssssssssssssssssssscssscsssssssssssssssssssssssssssssscssssssssssssscsssssssssssscccssccsccsssccsscsssssssscccscssssssssssssssssssssscsssscsccssssccsssssssssssccssssscsssssccsssssssscsscccscssscssscsscccsssssscssscscsssssscssssscccssssssssssssscsccssssssssssssssscccssssssssssssssssscsscsssssccssssssssssscsccssscssssssssscsssscsssssscccssscsssscssssccsssssscssssscssscssscscssssssscsscssccsscscscssssssscsccsssscssssssssssscssccccsssssssssscssssssssssssssssssssssssssssscsscsscssssscssssssssssssssscsssssssssssscssssscssssccscsssssssssssssccssssssssssssssccsssssssscssssccsssssss" /></g><path
       d="m 106.5431,86.274402 c -1.16647,-0.43358 -1.73764,-0.91761 -2.30792,-1.95584 -0.25596,-0.46599 -0.28612,-0.62388 -0.3099,-1.62197 -0.0248,-1.04153 -0.009,-1.14171 0.26668,-1.72531 0.59641,-1.26111 1.74139,-2.08913 3.08444,-2.23058 1.28235,-0.13505 2.32475,0.27881 3.28327,1.30354 1.75789,1.87932 1.0686,4.9974 -1.34738,6.09508 -0.75601,0.34348 -1.94642,0.40372 -2.66919,0.13508 z"
       style="fill:#000000;stroke-width:0.100301"
       id="path488"
       sodipodi:nodetypes="ssscssss" /><g
       inkscape:label="Layer 1"
       id="layer1-6"
       transform="translate(193.2991,108.69852)" /><g
       inkscape:label="Layer 1"
       id="layer1-9"
       transform="translate(5.7395099,85.950862)"><text
         xml:space="preserve"
         style="font-style:normal;font-variant:normal;font-weight:normal;font-stretch:normal;font-size:10.5833px;line-height:1.25;font-family:edo;-inkscape-font-specification:edo;stroke-width:0.264583"
         x="105.26637"
         y="139.28423"
         id="text1441"><tspan
           sodipodi:role="line"
           id="tspan1439"
           x="105.26637"
           y="139.28423"
           style="font-style:normal;font-variant:normal;font-weight:normal;font-stretch:normal;font-family:edo;-inkscape-font-specification:edo;stroke-width:0.264583" /></text><path
         id="path1437"
         style="fill:#000000;stroke-width:0.0684042"
         d="m 96.671293,41.00728 c -0.681933,0.0018 -0.756466,0.0223 -1.156518,0.214974 -1.71461,1.085108 -2.364946,2.903936 -1.414384,4.575431 0.312108,0.533148 0.41543,0.931594 0.361218,1.393714 -0.05469,0.466209 -0.195312,0.763869 -0.510046,1.07952 -0.365395,0.366446 -0.769329,0.522707 -1.353406,0.522966 -0.435983,2.58e-4 -0.533356,-0.02567 -0.887284,-0.235645 -0.308382,-0.182962 -0.451338,-0.327017 -0.638721,-0.642854 -0.224337,-0.378114 -0.241846,-0.447796 -0.241846,-0.975135 v -0.567407 l -0.683679,0.01912 -0.684196,0.01964 -0.0217,0.478524 c -0.0469,1.040309 0.45906,2.044728 1.358057,2.69596 0.247369,0.179195 0.948508,0.483323 1.331701,0.577742 0.07525,0.01854 0.367406,0.02143 0.649573,0.0062 1.362451,-0.07347 2.533913,-0.996614 2.935221,-2.31252 0.26084,-0.855308 0.168996,-1.543644 -0.33538,-2.519226 -0.323018,-0.624796 -0.342614,-0.692835 -0.342614,-1.182357 0,-0.290892 0.04237,-0.620152 0.09612,-0.748791 0.158833,-0.380141 0.555755,-0.759171 1.008207,-0.962216 0.35469,-0.159182 0.484253,-0.183604 0.816488,-0.153479 0.511077,0.04634 1.03697,0.331412 1.337902,0.725538 0.295437,0.386911 0.386335,0.698642 0.356568,1.220597 l -0.02377,0.418062 0.374654,0.04703 c 0.206248,0.0257 0.492302,0.09355 0.63562,0.150895 0.143319,0.05726 0.282369,0.08252 0.309025,0.05581 0.02665,-0.02671 0.04858,-0.393916 0.04858,-0.81597 0,-0.752019 -0.0053,-0.778222 -0.262517,-1.298629 -0.353351,-0.714835 -0.841806,-1.204314 -1.530655,-1.53324 -0.526353,-0.25134 -0.541971,-0.254248 -1.387513,-0.254248 -0.05114,0 -0.09923,-1.2e-4 -0.144694,0 z m 0.142111,2.516126 c -0.03461,10e-4 -0.06975,0.0047 -0.10542,0.01137 -0.586852,0.110095 -0.680243,0.932728 -0.133326,1.175122 0.344976,0.152896 0.641129,0.03429 0.830957,-0.332796 0.197076,-0.381102 -0.09631,-0.812842 -0.51263,-0.851111 -0.02602,-0.0023 -0.05266,-0.0033 -0.07958,-0.0026 z m 1.613338,1.760099 c -0.188333,0.0041 -0.250618,0.05211 -0.423747,0.204122 -0.336139,0.295126 -0.630911,0.410827 -1.046965,0.410827 -0.341112,0 -0.343914,0.0018 -0.509529,0.328663 -0.322238,0.635907 -0.296324,1.112914 0.0801,1.465026 0.249764,0.233634 0.503752,0.351351 1.075904,0.499195 0.621018,0.160471 0.855245,0.280019 0.855245,0.436666 0,0.457724 -1.030976,0.440307 -1.81281,-0.03049 -0.379806,-0.228711 -0.513147,-0.248593 -0.513147,-0.077 0,0.04567 -0.110424,0.250739 -0.245463,0.455786 l -0.245463,0.372587 0.194304,0.16123 c 0.219025,0.181619 0.688393,0.402552 1.047998,0.49351 0.132368,0.03349 0.533787,0.05414 0.892452,0.04547 0.555247,-0.01342 0.710343,-0.04403 1.041797,-0.206189 0.654849,-0.320388 1.008207,-0.862089 1.008207,-1.544608 0,-0.616858 -0.356733,-0.911695 -1.480013,-1.222664 -0.616751,-0.17074 -0.676259,-0.20166 -0.695048,-0.362769 -0.01161,-0.09953 0.02683,-0.215584 0.08837,-0.26665 0.141552,-0.117479 0.606883,-0.108079 0.977202,0.02015 0.291681,0.100958 0.293723,0.100569 0.502811,-0.10852 0.21065,-0.21065 0.567305,-0.729699 0.526067,-0.765328 -0.163832,-0.141538 -0.595397,-0.269683 -0.994772,-0.295589 -0.119902,-0.0078 -0.2109,-0.01295 -0.28422,-0.01344 -0.01375,-9.9e-5 -0.02672,-2.59e-4 -0.03927,0 z m 15.817638,0.0047 c -0.102,2.58e-4 -0.22016,0.0034 -0.36173,0.0083 -0.8145,0.02828 -0.99728,0.08896 -1.43919,0.476973 -0.49389,0.43364 -0.70913,1.222549 -0.46302,1.698088 0.14974,0.28935 0.62001,0.560436 1.24436,0.717269 0.65629,0.164845 0.89762,0.281727 0.89762,0.434082 0,0.453125 -1.03566,0.458234 -1.71462,0.0088 l -0.30231,-0.199988 -0.42684,0.42323 -0.42685,0.42323 0.15244,0.163298 c 0.18772,0.201037 0.44859,0.341515 0.93948,0.504878 0.5651,0.188059 1.54641,0.144529 2.05672,-0.09095 0.51861,-0.239312 0.86176,-0.607539 0.99581,-1.068669 0.26419,-0.908787 -0.0707,-1.330121 -1.34256,-1.690336 -0.35741,-0.101222 -0.68961,-0.216919 -0.73845,-0.257349 -0.16517,-0.136712 -0.0644,-0.353776 0.20515,-0.441833 0.29915,-0.09772 0.90098,0.02792 1.21957,0.254765 0.10465,0.07452 0.20439,0.135909 0.22221,0.135909 0.0178,0 0.21197,-0.204267 0.43098,-0.453719 l 0.39791,-0.453719 -0.18139,-0.155546 c -0.0997,-0.08575 -0.35957,-0.223367 -0.57774,-0.305408 -0.2559,-0.09624 -0.41042,-0.129885 -0.74466,-0.131258 -0.0139,-6.4e-5 -0.0283,-4.6e-5 -0.0429,0 z m -13.06949,0.04909 c -0.19239,0.0021 -0.34562,0.01326 -0.36793,0.03566 -0.0368,0.03683 -0.77282,4.32191 -0.77463,4.509802 -0.001,0.105669 0.0745,0.11989 0.64699,0.11989 0.61688,0 0.65033,-0.0076 0.68264,-0.153996 0.10078,-0.456548 0.72408,-4.385525 0.70487,-4.44314 -0.0112,-0.03357 -0.30987,-0.05782 -0.61392,-0.06563 -0.095,-0.0023 -0.19056,-0.0035 -0.27802,-0.0026 z m 2.13889,0.001 c -0.34484,0.0013 -0.42557,0.02521 -0.44235,0.08113 -0.0169,0.05643 -0.0638,0.318005 -0.10387,0.58136 -0.11965,0.786874 -0.41777,2.563979 -0.52038,3.101619 -0.0527,0.276073 -0.0956,0.591692 -0.0956,0.701249 v 0.198955 h 1.11414 c 1.24891,0 1.66925,-0.07658 2.31769,-0.422197 0.50943,-0.271522 0.90101,-0.69793 1.17099,-1.274857 0.18523,-0.395834 0.21391,-0.532995 0.21652,-1.03818 0.003,-0.527803 -0.0167,-0.617519 -0.20929,-0.958598 -0.21915,-0.388141 -0.55801,-0.672971 -0.98288,-0.825789 -0.10649,-0.0383 -0.51966,-0.07162 -1.02165,-0.09819 v -5.17e-4 c -0.0313,-0.0017 -0.0607,-0.0034 -0.0909,-0.0052 v 1.1467 c 0.0307,0.0029 0.0621,0.0056 0.0909,0.0093 v 5.17e-4 c 0.42977,0.05647 0.69531,0.240143 0.80306,0.561723 0.22158,0.661332 -0.25665,1.484759 -0.96635,1.663464 -0.17258,0.04345 -0.45435,0.07906 -0.6258,0.07906 -0.37429,0 -0.36461,0.08507 -0.13953,-1.231449 0.0933,-0.545523 0.16994,-1.015132 0.17001,-1.043348 8e-5,-0.02646 0.18241,-0.04798 0.41445,-0.05013 0.0155,-1.43e-4 0.0311,-3.4e-5 0.047,0 0.0637,1.55e-4 0.1448,0.0039 0.2036,0.0088 v -1.141089 c -0.13312,-0.0078 -0.28334,-0.02092 -0.4439,-0.02576 -0.28383,-0.0086 -0.50818,-0.01442 -0.68575,-0.01705 -0.0832,-0.0013 -0.15628,-0.0018 -0.22014,-0.0016 z m 4.4819,0.0078 -0.35657,2.140438 c -0.19616,1.177033 -0.35812,2.224563 -0.35967,2.328023 l -0.003,0.188103 h 1.87792 1.87844 l 0.0388,-0.222209 c 0.0214,-0.122272 0.065,-0.367681 0.0966,-0.545186 0.0316,-0.177516 0.0412,-0.339141 0.0212,-0.359152 -0.02,-0.02001 -0.58124,-0.03617 -1.24695,-0.03617 h -1.21026 l 0.0289,-0.188102 c 0.0838,-0.546074 -0.0391,-0.496094 1.21078,-0.496094 h 1.11982 l 0.0444,-0.325045 c 0.0245,-0.178708 0.0613,-0.409686 0.0816,-0.513147 l 0.0372,-0.188102 h -1.10019 -1.09967 l 0.001,-0.188102 c 5.1e-4,-0.103461 0.0197,-0.256929 0.0424,-0.341581 0.0408,-0.152348 0.0536,-0.153996 1.26298,-0.153996 1.21206,0 1.22209,-0.0013 1.25418,-0.153996 0.12448,-0.592227 0.17471,-0.89603 0.15193,-0.918807 -0.0145,-0.01456 -0.86904,-0.02622 -1.89911,-0.02636 z M 92.59454,46.37704 c -0.231445,0.0021 -0.313498,0.03822 -0.425297,0.180351 -0.220657,0.280522 -0.191163,0.655164 0.06873,0.873848 0.285069,0.239875 0.566232,0.232222 0.821139,-0.02274 0.425984,-0.425985 0.166641,-1.031462 -0.441834,-1.031462 -0.0078,0 -0.01527,-7e-5 -0.02274,0 z"
         sodipodi:nodetypes="cccsscsssccccsscsssssssccccsscssscssscccsssssssscccssssssscsssscccssssccccssssssssscccsscccsssscccscsscssscssccccccsssssssccscccccccccsssccsccccccccssccccsscscssscsss" /><text
         xml:space="preserve"
         style="font-style:normal;font-variant:normal;font-weight:normal;font-stretch:normal;font-size:2.73616px;line-height:1.25;font-family:edo;-inkscape-font-specification:edo;stroke-width:0.0684042"
         x="103.80296"
         y="52.992844"
         id="text1441-8"><tspan
           sodipodi:role="line"
           id="tspan1439-4"
           x="103.80296"
           y="52.992844"
           style="font-style:normal;font-variant:normal;font-weight:normal;font-stretch:normal;font-family:edo;-inkscape-font-specification:edo;stroke-width:0.0684042" /></text><g
         aria-label="CHELTENHAM"
         transform="matrix(0.23253896,0,0,0.28743942,76.587806,16.982856)"
         id="text843"
         style="font-size:10.7478px;line-height:1.25;font-family:edo;-inkscape-font-specification:edo;stroke-width:0.268695"><path
           d="m 112.47494,116.36515 h 0.0892 q 1.29625,0 1.96274,1.07058 v 0.0892 h -0.17843 l 0.0892,0.0892 v 0.0892 q -0.53529,-0.063 -0.53529,-0.17843 -2.08344,0 -3.12253,2.14117 l -0.17843,0.6245 0.26764,1.69509 h 0.26765 q 1.11257,0 2.49802,-1.60587 h 0.0892 v 0.0892 q -0.94988,1.36972 -2.14116,1.60587 v 0.0892 h 0.0892 q 0.93414,0 2.31959,-1.60587 l 0.26765,0.35686 v 0.26764 q 0,0.28864 -1.33823,1.33823 l -0.0892,0.0892 h -0.0892 v 0.17844 q 1.51666,-0.73997 1.51666,-1.07059 h 0.17843 v 0.0892 q -1.12306,1.33823 -2.58724,1.33823 v 0.0892 h 0.44608 l 0.35686,-0.0892 h 0.0892 v 0.0892 l -1.07058,0.17318 q -0.67698,0 -1.42744,-0.97612 v 0.0892 l 0.44607,0.71372 v 0.084 h -0.26764 q -0.82918,-0.56678 -0.98137,-1.4222 l -0.0892,-1.15979 q 0,-2.23563 0.89215,-2.85489 v 0.0892 l -0.53529,0.89215 v 0.0892 h 0.0892 q 0,-0.85016 2.23038,-2.4088 l -0.26764,0.0892 h -0.0892 v -0.0892 z m -0.98137,0.35686 h 0.0892 v 0.0892 l -0.62451,0.26765 q 0,-0.17843 0.53529,-0.35686 z m -0.80294,0.6245 v 0.0892 l -0.44607,0.44607 v -0.0892 z m -1.07058,4.28233 v 0.26764 l 0.0892,0.35686 h 0.0892 v -0.0892 l -0.0892,-0.53529 z"
           style="font-family:'Edo SZ';-inkscape-font-specification:'Edo SZ'"
           id="path661" /><path
           d="m 115.81788,116.19196 h 0.0892 v 0.26765 h 0.0892 v -0.17843 h 0.35686 q 0.17843,0 0.17843,0.53529 l 0.26765,0.0892 q 0,-0.26764 0.17843,-0.26764 l 0.0892,0.0892 v 0.0892 l -0.44607,2.40881 1.33822,-0.0892 h 0.89216 l 0.0892,-0.44607 -0.0892,-0.0892 h 0.17843 l -0.0892,-0.6245 v -0.0892 h 0.17843 l -0.0892,-0.0892 v -0.17843 h 0.17843 V 117.441 h -0.17843 v -0.0892 h 0.17843 l -0.0892,-0.0892 v -0.6245 l 0.0892,0.0892 h 0.0892 v -0.35686 l -0.0892,-0.0892 v -0.0892 h 0.26764 l -0.44607,3.03332 q 0.17843,0 0.53529,-2.9441 l 0.35686,-0.0892 q 0.0892,0.71372 0.26764,0.71372 h 0.0892 q 0,-0.26764 0.17843,-0.26764 h 0.0892 q -0.44607,3.08579 -1.33822,7.22642 h -0.0892 l -0.0892,-0.0892 0.0892,-0.0892 v -0.71372 h -0.0892 l -0.26765,0.89215 h -0.26765 q -0.17843,0 -0.17843,-0.53529 h -0.0892 v 0.35686 h -0.0892 q -0.17843,0 -0.17843,-0.26764 0,-0.6455 0.53529,-3.03332 h -0.0892 l -1.1598,0.0892 -0.80293,-0.0892 q -0.26765,2.14117 -0.53529,2.85489 h -0.26765 q -0.17843,0 -0.17843,-0.71372 h -0.0892 l -0.0892,0.6245 -0.17843,-0.17843 v -0.26764 l 0.0892,-0.0892 v -0.0892 l -0.0892,-0.0892 h -0.0892 l -0.0892,0.0892 h -0.0892 l -0.0892,-0.35686 q 0.35686,-3.01233 0.80294,-4.37154 h 0.0892 l -0.0892,-0.0892 v -0.26765 l 0.26764,-0.98136 h -0.0892 z m 0.0892,0.35686 v 0.62451 h 0.0892 v -0.62451 z m -0.0892,0.71372 -0.0892,0.71373 v 0.17843 h 0.0892 l 0.0892,-0.71373 v -0.17843 z m -0.17843,0.98137 v 0.35686 h 0.0892 v -0.35686 z m -0.0892,0.44608 -0.0892,0.44607 v 0.0892 h 0.0892 l 0.0892,-0.35686 v -0.17843 z m -0.17843,0.89215 v 0.35686 h 0.0892 v -0.35686 z m 3.39017,0.89215 -0.0892,0.53529 v 0.0892 h 0.0892 l 0.0892,-0.44608 v -0.17843 z m -0.17843,0.71372 v 0.35686 h 0.0892 v -0.35686 z m 0.62451,0.98137 -0.0892,0.44607 v 0.26765 h 0.0892 l 0.0892,-0.62451 v -0.0892 z m -4.37155,0.44607 h 0.0892 v 0.44608 h -0.0892 z"
           style="font-family:'Edo SZ';-inkscape-font-specification:'Edo SZ'"
           id="path663" /><path
           d="m 125.47935,116.24444 0.43034,0.29914 q -0.18893,0.79244 -0.68224,0.76095 l -2.33009,0.10496 -0.0105,0.17843 0.44083,0.0315 0.54053,-0.0525 0.084,0.0997 0.0892,0.005 0.62975,-0.0525 0.17843,0.0157 -0.005,0.0892 -2.07294,0.21517 -0.16268,1.15455 0.0892,0.005 2.42455,-0.19418 0.0787,0.0945 -0.005,0.0892 -0.17843,-0.0157 v 0.0892 l 0.61401,0.13645 -0.005,0.0892 q -0.19418,0.49856 -2.561,0.80819 l -0.8974,0.0315 0.084,0.0892 -0.43034,1.13356 h -0.0892 l 0.0525,-0.80294 -0.0892,-0.005 -0.17318,1.23852 q 2.67121,-0.35686 3.77328,-0.28339 l 0.43558,0.1207 -0.005,0.17843 -0.17843,-0.0105 0.0787,0.0945 -0.0157,0.26765 q -0.25715,0.33586 -1.09157,0.28339 l -0.005,0.0892 0.71372,0.0472 -0.0157,0.17843 -4.15113,0.60876 -0.0892,-0.005 q -0.43034,-0.0945 -0.43034,-0.27814 v -0.0157 l 0.0157,-0.26764 0.24665,-0.96563 -0.084,-0.0945 0.17844,0.005 -0.0315,0.44607 0.0892,0.0105 q 0.0525,-0.44608 0.20992,-0.43033 l -0.084,-0.0997 0.063,-0.88691 -0.17843,-0.0157 -0.1207,0.44083 0.0997,-0.084 0.0892,0.005 -0.0367,0.53529 -0.0892,-0.0105 0.0157,-0.26239 -0.0892,-0.005 -0.0105,0.17843 -0.0892,-0.005 0.0105,-0.17843 0.28339,-1.50616 -0.0892,-0.005 0.20467,-0.43033 -0.084,-0.0945 0.005,-0.0892 0.19417,-1.50616 0.084,0.0945 0.0892,0.005 0.0105,-0.17843 -0.0577,-0.45132 0.1417,-0.79769 0.0157,-0.26765 0.0892,0.0105 0.084,0.0945 0.0945,-0.084 0.0892,0.0105 0.084,0.0892 0.0945,-0.084 0.26765,0.021 z m -4.466,3.89923 -0.042,0.6245 0.0892,0.005 0.042,-0.61926 z m 2.9441,0.11545 h 0.0892 l -0.0105,0.0892 -1.61637,0.16269 -0.084,-0.0997 0.005,-0.084 0.80819,-0.0367 -0.005,0.0892 z"
           style="font-family:'Edo SZ';-inkscape-font-specification:'Edo SZ'"
           id="path665" /><path
           d="m 127.31089,116.19196 q 0.17843,0 0.17843,0.53529 h 0.17843 l 0.26765,-0.17843 0.0892,0.0892 -0.44608,4.99605 q 0.56678,-0.26765 3.03332,-0.62451 h 0.0892 v 0.0892 q -3.12253,0.50905 -3.12253,0.80293 l 0.98137,-0.26764 v 0.0892 l 1.69509,-0.35686 v 0.0892 l 0.0892,-0.0892 h 0.0892 l 0.0892,0.0892 0.44608,-0.0892 h 0.35686 l 0.62451,0.0892 v 0.0892 q 0,0.26765 -1.33823,0.44608 v 0.0892 l 0.0892,-0.0892 h 0.0892 l 0.62451,0.0892 0.0892,-0.0892 v 0.26764 l -2.9441,0.71372 -1.87352,0.71372 h -0.26764 l -0.35686,-0.44607 h -0.0892 v -0.0892 q 0,-0.22566 0.35686,-0.26764 v -0.26765 l -0.26764,-0.35686 0.35686,-4.01468 h 0.0892 v 0.35686 l -0.0892,0.62451 h 0.17843 l -0.17843,1.15979 0.0892,0.0892 -0.0892,0.35686 v 0.44608 h 0.0892 l 0.35686,-4.72841 q 0.17843,0 0.17843,-0.26764 l 0.0892,-0.0892 z"
           style="font-family:'Edo SZ';-inkscape-font-specification:'Edo SZ'"
           id="path667" /><path
           d="m 136.95662,116.08176 0.26765,0.0892 v 0.17843 h -0.26765 l 0.17843,0.26765 q -0.19417,0.44607 -1.42744,0.44607 l -0.62451,0.0892 -0.0892,0.26764 h 0.0892 q -0.26764,0.635 -1.07058,5.70977 l 0.26765,1.1598 h -0.0892 q -0.19942,0 -0.35686,-0.89215 l 0.0892,-0.89215 v -0.0892 h -0.0892 v 0.17843 q -0.26765,0 -0.26765,0.17843 v 0.0892 l 0.17844,1.42744 v 0.0892 h -0.17844 l -0.35686,-0.26764 -0.0892,0.0892 h -0.0892 q -0.35686,-0.77145 -0.35686,-1.33822 l 0.0892,0.0892 h 0.0892 l -0.17843,-0.6245 0.26765,-0.0892 v -0.44608 h -0.17843 v -0.0892 q 0.26764,0 0.26764,-0.17843 v -0.0892 h -0.17843 q 0,-0.71372 0.26765,-0.71372 v -1.15979 q 0.14169,-0.12595 0.35686,-1.87352 l -0.62451,0.0892 -1.24901,-0.0892 v -0.0892 l 0.44608,-0.0892 v 0.0892 l 0.0892,-0.0892 h 1.33823 v -0.26765 l -1.42744,0.17843 -0.0892,-0.0892 h -0.0892 l -0.53529,0.0892 -0.26765,-0.17843 0.0892,-0.44607 -0.0892,-0.0892 q 0,-0.44607 1.07058,-0.44607 z m -0.53529,0.26764 v 0.0892 h 0.35686 v -0.0892 z m -3.30096,4.99605 -0.17843,1.96273 h 0.17843 l -0.0892,-0.44607 v -0.17843 l 0.17843,-0.26765 h -0.0892 l 0.0892,-0.0892 v -0.0892 l -0.0892,-0.0892 v -0.0892 l 0.17843,-0.35686 -0.0892,-0.35686 z"
           style="font-family:'Edo SZ';-inkscape-font-specification:'Edo SZ'"
           id="path669" /><path
           d="m 141.27044,116.24444 0.43033,0.29914 q -0.18893,0.79244 -0.68224,0.76095 l -2.33009,0.10496 -0.0105,0.17843 0.44083,0.0315 0.54053,-0.0525 0.084,0.0997 0.0892,0.005 0.62975,-0.0525 0.17843,0.0157 -0.005,0.0892 -2.07294,0.21517 -0.16268,1.15455 0.0892,0.005 2.42455,-0.19418 0.0787,0.0945 -0.005,0.0892 -0.17843,-0.0157 v 0.0892 l 0.61401,0.13645 -0.005,0.0892 q -0.19418,0.49856 -2.561,0.80819 l -0.8974,0.0315 0.084,0.0892 -0.43034,1.13356 h -0.0892 l 0.0525,-0.80294 -0.0892,-0.005 -0.17318,1.23852 q 2.67121,-0.35686 3.77328,-0.28339 l 0.43558,0.1207 -0.005,0.17843 -0.17843,-0.0105 0.0787,0.0945 -0.0157,0.26765 q -0.25715,0.33586 -1.09157,0.28339 l -0.005,0.0892 0.71372,0.0472 -0.0157,0.17843 -4.15113,0.60876 -0.0892,-0.005 q -0.43033,-0.0945 -0.43033,-0.27814 v -0.0157 l 0.0157,-0.26764 0.24665,-0.96563 -0.084,-0.0945 0.17843,0.005 -0.0315,0.44607 0.0892,0.0105 q 0.0525,-0.44608 0.20992,-0.43033 l -0.084,-0.0997 0.063,-0.88691 -0.17843,-0.0157 -0.1207,0.44083 0.0997,-0.084 0.0892,0.005 -0.0367,0.53529 -0.0892,-0.0105 0.0157,-0.26239 -0.0892,-0.005 -0.0105,0.17843 -0.0892,-0.005 0.0105,-0.17843 0.28338,-1.50616 -0.0892,-0.005 0.20467,-0.43033 -0.084,-0.0945 0.005,-0.0892 0.19417,-1.50616 0.084,0.0945 0.0892,0.005 0.0105,-0.17843 -0.0577,-0.45132 0.1417,-0.79769 0.0157,-0.26765 0.0892,0.0105 0.084,0.0945 0.0945,-0.084 0.0892,0.0105 0.084,0.0892 0.0945,-0.084 0.26765,0.021 z m -4.46601,3.89923 -0.042,0.6245 0.0892,0.005 0.042,-0.61926 z m 2.9441,0.11545 h 0.0892 l -0.0105,0.0892 -1.61637,0.16269 -0.084,-0.0997 0.005,-0.084 0.80819,-0.0367 -0.005,0.0892 z"
           style="font-family:'Edo SZ';-inkscape-font-specification:'Edo SZ'"
           id="path671" /><path
           d="m 143.5428,116.28643 0.6245,0.53529 q 0,-0.26765 0.17843,-0.26765 h 0.0892 l 1.24901,3.21175 v 0.17843 h -0.0892 l -0.17843,-0.53529 h -0.0892 v 0.17843 l 0.6245,1.51665 h 0.0892 q 0.35686,-2.31959 1.0286,-4.84385 l 0.26764,0.17843 0.26765,-0.0892 0.53529,0.26765 v 0.0892 q -0.26765,0 -0.26765,0.35686 h 0.0892 l 0.0892,0.0892 h 0.0892 l 0.0892,-0.44608 h 0.17843 v 0.0892 l -0.0892,0.0892 0.0892,0.0892 v 0.0892 q -0.67173,2.06245 -1.20702,5.91444 h -0.17843 l 0.17843,-1.42744 q -0.17843,0 -0.53529,1.69509 -0.33063,0.26764 -0.62451,0.26764 v 0.17843 h -0.0892 q 0,-0.17843 -0.35686,-0.17843 v -0.6245 q 0,-0.4041 -1.7843,-4.46076 h -0.0892 q -0.35686,1.59013 -0.62451,4.28233 l -0.0892,-0.0892 q -0.53529,0.15744 -0.53529,0.44608 h -0.17843 q -0.17843,-0.33587 -0.17843,-1.1598 h -0.0892 v 0.80294 h -0.17843 l -0.0892,-0.44608 q 0,-2.42455 1.07058,-5.8882 z m -1.24902,2.23037 v 0.0892 l 0.0892,0.0892 -0.0892,0.0892 v 0.17843 h 0.0892 l 0.0892,-0.35686 -0.0892,-0.0892 z m 3.39018,1.42745 q 0.23091,0 0.35686,0.71372 v 0.0892 h -0.0892 z"
           style="font-family:'Edo SZ';-inkscape-font-specification:'Edo SZ'"
           id="path673" /><path
           d="m 149.63567,116.19196 h 0.0892 v 0.26765 h 0.0892 v -0.17843 h 0.35686 q 0.17843,0 0.17843,0.53529 l 0.26764,0.0892 q 0,-0.26764 0.17843,-0.26764 l 0.0892,0.0892 v 0.0892 l -0.44608,2.40881 1.33823,-0.0892 h 0.89215 l 0.0892,-0.44607 -0.0892,-0.0892 h 0.17843 l -0.0892,-0.6245 v -0.0892 h 0.17843 l -0.0892,-0.0892 v -0.17843 h 0.17843 V 117.441 h -0.17843 v -0.0892 h 0.17843 l -0.0892,-0.0892 v -0.6245 l 0.0892,0.0892 h 0.0892 v -0.35686 l -0.0892,-0.0892 v -0.0892 h 0.26765 l -0.44608,3.03332 q 0.17843,0 0.53529,-2.9441 l 0.35686,-0.0892 q 0.0892,0.71372 0.26765,0.71372 h 0.0892 q 0,-0.26764 0.17843,-0.26764 h 0.0892 q -0.44608,3.08579 -1.33823,7.22642 h -0.0892 l -0.0892,-0.0892 0.0892,-0.0892 v -0.71372 h -0.0892 l -0.26764,0.89215 h -0.26765 q -0.17843,0 -0.17843,-0.53529 h -0.0892 v 0.35686 h -0.0892 q -0.17843,0 -0.17843,-0.26764 0,-0.6455 0.53529,-3.03332 h -0.0892 l -1.15979,0.0892 -0.80294,-0.0892 q -0.26764,2.14117 -0.53529,2.85489 h -0.26764 q -0.17843,0 -0.17843,-0.71372 h -0.0892 l -0.0892,0.6245 -0.17843,-0.17843 v -0.26764 l 0.0892,-0.0892 v -0.0892 l -0.0892,-0.0892 h -0.0892 l -0.0892,0.0892 h -0.0892 l -0.0892,-0.35686 q 0.35686,-3.01233 0.80294,-4.37154 h 0.0892 l -0.0892,-0.0892 v -0.26765 l 0.26765,-0.98136 h -0.0892 z m 0.0892,0.35686 v 0.62451 h 0.0892 v -0.62451 z m -0.0892,0.71372 -0.0892,0.71373 v 0.17843 h 0.0892 l 0.0892,-0.71373 v -0.17843 z m -0.17843,0.98137 v 0.35686 h 0.0892 v -0.35686 z m -0.0892,0.44608 -0.0892,0.44607 v 0.0892 h 0.0892 l 0.0892,-0.35686 v -0.17843 z m -0.17843,0.89215 v 0.35686 h 0.0892 v -0.35686 z m 3.39018,0.89215 -0.0892,0.53529 v 0.0892 h 0.0892 l 0.0892,-0.44608 v -0.17843 z m -0.17844,0.71372 v 0.35686 h 0.0892 v -0.35686 z m 0.62451,0.98137 -0.0892,0.44607 v 0.26765 h 0.0892 l 0.0892,-0.62451 v -0.0892 z m -4.37154,0.44607 h 0.0892 v 0.44608 h -0.0892 z"
           style="font-family:'Edo SZ';-inkscape-font-specification:'Edo SZ'"
           id="path675" /><path
           id="path677"
           style="font-family:'Edo SZ';-inkscape-font-specification:'Edo SZ'"
           d="m 157.9121,115.83552 c -0.36036,0 -0.74719,0.11806 -1.16003,0.35597 v -0.0881 l 0.0889,-0.0899 h -0.35778 l -0.44446,1.24949 c 0.17844,0 0.26668,0.059 0.26668,0.17798 v 0.0899 h -0.0889 l -0.0889,-0.0899 h -0.0889 l -0.18,0.35597 v 0.0899 l 0.0911,0.0899 h -0.0911 l -0.0889,-0.0899 -0.0889,0.44586 v 0.35777 h 0.0889 l 0.0889,-0.0899 -0.0889,0.44586 c -0.11895,0 -0.17778,-0.0894 -0.17778,-0.26787 h -0.0889 l -1.51781,3.65856 0.26889,0.26788 -0.0889,0.53575 0.17778,0.17798 c 0,-0.47581 0.0882,-0.71373 0.26667,-0.71373 h 0.0911 l -0.18001,0.53575 0.2689,0.17798 v -0.0899 h 0.0889 l 0.0889,0.0899 h 0.26667 v -0.17798 c 0.19942,-0.17844 0.37813,-0.59525 0.53557,-1.24949 0,-0.37086 0.62437,-0.66781 1.87337,-0.89172 v -0.17978 l -0.44445,0.0899 -0.35779,-0.0899 -0.62446,0.17978 v -0.17978 l 1.96227,-0.44586 v 0.53575 l 0.0889,0.0899 h -0.0889 l -0.0889,-0.0899 h -0.0889 v 0.35597 l 0.0889,-0.0881 h 0.0889 l -0.0889,0.0881 v 0.35777 h 0.0889 v -0.26788 h 0.18 v 0.26788 l -0.0911,0.0899 c 0.12943,0 0.21989,0.26654 0.26889,0.80183 v 0.0899 l -0.26889,-0.17799 0.18,1.06971 h 0.0889 v -0.35597 h 0.0889 l 0.44667,1.51556 c 0.11895,0 0.17778,-0.0894 0.17778,-0.26788 h 0.0889 l 0.0889,0.0899 h 0.0889 l -0.0889,-0.26788 v -0.0899 c 0.11896,0 0.18001,0.0894 0.18001,0.26787 h 0.17778 l -0.26889,-1.33757 h 0.0911 l 0.0889,0.0899 v -0.53575 l -0.0889,-1.0715 0.0889,-0.0881 h -0.0889 l 0.0889,-0.0899 -0.0889,-0.53575 0.0889,-0.26787 -0.18,-0.53396 c 0.59476,-0.10496 0.89335,-0.22482 0.89335,-0.35776 v -0.0881 h -0.71335 c 0,-0.11895 -0.0905,-0.17978 -0.2689,-0.17978 v -0.0881 l 0.53557,-0.0899 v -0.0899 h -0.62446 l -0.11555,-0.50159 h -1.53337 l 0.13334,0.50159 c -0.0595,0.35686 -0.38748,0.53575 -0.98225,0.53575 h -0.17778 l 0.71335,-1.87333 h 0.0889 l 0.22667,0.83958 1.53115,-0.004 -0.59779,-2.61943 c -0.43735,0 -0.67489,-0.0894 -0.71335,-0.26787 z m -1.33781,2.58706 h 0.0889 v 0.0899 l -0.26889,0.80183 h -0.0889 l -0.0889,-0.35597 h 0.0889 l 0.0889,0.0881 z m -0.98224,0.80183 h 0.0889 l -0.0889,0.26787 h -0.0889 v -0.17798 z m 0.53556,0.35776 h 0.0889 v 0.26788 l -0.0889,0.0881 h -0.0889 z m -0.80224,0.0899 h 0.17779 l -0.17779,0.35597 h -0.0911 z m 2.40895,0.0881 h 0.0889 c 0,0.11896 -0.26918,0.20841 -0.80447,0.26787 h -0.17778 v -0.0899 z m 0.35556,2.1412 0.0889,0.53575 h 0.0889 v -0.53575 z m 1.24891,0.62564 h 0.0889 l 0.0889,0.35597 v 0.17799 h -0.0889 l -0.0889,-0.35597 z m -0.62445,0.17799 v 0.17798 l -0.26668,0.0899 v -0.17978 z"
           sodipodi:nodetypes="ccccccsccccccccccccccccccccsccccccccccccccccccccccccccccccccccccccccccccccccccccccccccsccccccccccscccccccccccccccccccccccccccccccccccccccccccccccccccccccc" /><path
           d="m 165.38476,116.11849 h 0.17843 l -0.0157,0.17843 -0.20992,0.35686 -0.0787,-0.0892 h -0.0892 z m -3.30621,0.0892 h 0.17843 l 0.2519,0.17843 0.005,-0.0892 q 0.47756,0.0892 0.67699,0.44608 0.30963,0 0.64025,1.87352 l 1.23326,-1.87352 0.0945,-0.0892 h 0.0892 l -0.005,0.0892 -1.26475,2.23038 h 0.17843 q 1.4012,-2.76567 1.66885,-2.76567 l 0.2519,0.17843 0.005,-0.0892 q 0.3831,0 0.90789,0.89215 l -0.0262,0.26765 -0.0945,0.0892 0.0787,0.0892 -0.0315,0.35686 h -0.17843 l 0.1312,0.53529 -0.17318,0.98137 -0.0262,0.26764 0.084,0.0892 -0.0105,0.0892 -0.18893,0.17843 0.15744,0.17843 -0.18893,0.17843 0.15744,0.17843 -0.0945,0.0892 h -0.0892 l 0.084,0.0892 -0.22041,2.49803 q -0.26765,0 -0.28864,0.26764 -0.26765,0 -0.30963,0.44608 h -0.26764 l -0.50381,-0.35686 0.13645,-0.53529 -0.1312,-0.53529 0.60351,-3.83625 q -0.44607,0.46706 -0.97611,1.96273 -0.0472,0.51955 -0.41984,0.71372 h -0.0892 l 0.005,-0.0892 0.0997,-0.0892 0.0105,-0.0892 -0.084,-0.0892 0.19418,-0.17843 0.021,-0.26765 h -0.17843 q -0.0367,0.48806 -0.41984,0.71372 h -0.0892 l -0.40409,-0.44607 q -0.23616,0 -0.28339,-0.80294 -0.45658,-0.92888 -0.41984,-1.33822 h -0.0892 l -0.18368,1.07058 -0.063,0.71372 -0.11021,0.26764 0.0472,0.44608 -0.16794,1.96273 q -0.17843,0 -0.20467,0.26765 l -0.48281,0.44607 h -0.0892 l -0.60352,-0.26764 0.1312,-0.44608 -0.005,-0.98136 0.0367,-0.44608 0.0945,-0.0892 -0.0787,-0.0892 0.0105,-0.0892 q 0.1207,-1.36446 0.52479,-2.94409 h 0.0892 l -0.084,-0.0892 0.0105,-0.0892 0.1207,-0.35687 -0.063,-0.35686 0.0105,-0.0892 h 0.0892 l -0.0157,0.17843 h 0.0892 l 0.0262,-0.26765 -0.084,-0.0892 0.32537,-0.62451 0.021,-0.26764 -0.0997,0.0892 h -0.0892 l -0.0787,-0.0892 0.021,-0.26765 h 0.0892 l 0.084,0.0892 h 0.0892 z m 2.23563,4.01468 0.0682,0.26764 h 0.0892 q 0.0367,-0.47756 1.10207,-2.40881 l 0.12595,-0.44607 q -0.66649,0.82917 -1.38546,2.58724 z m 1.59013,-1.87352 -0.0945,0.0892 -0.19942,2.23037 h 0.0892 l 0.25715,-1.87351 -0.084,-0.0892 h 0.0892 l -0.0787,-0.0892 0.005,-0.0892 0.0997,-0.0892 0.005,-0.0892 z m -0.58253,4.63919 -0.063,0.71372 h 0.0892 l 0.1312,-0.44608 -0.0682,-0.26764 z"
           style="font-family:'Edo SZ';-inkscape-font-specification:'Edo SZ'"
           id="path679" /></g></g><path
       d="m 99.307396,130.00332 m -3.972884,-2.70164 -0.07958,0.5643 c -0.08136,0.57654 -0.187376,1.21446 -0.422713,2.54765 -0.07305,0.41385 -0.152646,0.89875 -0.177251,1.07745 l -0.04496,0.32505 h 1.196826 c 0.465859,0 0.76255,-0.002 0.951363,-0.015 v -0.002 c 0.216748,-0.0151 0.294065,-0.0429 0.334347,-0.0915 0.164127,-0.19777 0.735409,-0.43719 1.103809,-0.46302 0.350183,-0.0246 0.367682,-0.0357 0.516247,-0.32298 0.287125,-0.55513 0.184202,-1.05213 -0.282153,-1.35806 l -0.192754,-0.12609 0.197921,-0.1173 c 0.356788,-0.21076 0.533818,-0.55271 0.533818,-1.03198 0,-0.49067 -0.104911,-0.65522 -0.547253,-0.85835 -0.223212,-0.10249 -0.465826,-0.12291 -1.508436,-0.12609 -0.01389,-4e-5 -0.02559,9e-5 -0.03772,0 v 1.0263 c 0.01404,-2.5e-4 0.02344,-0.002 0.03772,-0.002 0.0074,-6e-5 0.01313,-7.5e-4 0.01964,-0.001 0.0022,-10e-5 0.0042,0 0.0067,0 0.708127,0 0.987734,0.29278 0.583427,0.61081 -0.139662,0.10986 -0.273474,0.13827 -0.647505,0.14056 v 0.90485 c 0.166325,0.0109 0.32626,0.0276 0.42788,0.0558 0.13734,0.0382 0.268565,0.11935 0.291972,0.18035 0.05684,0.14813 -0.131364,0.42378 -0.344682,0.50488 -0.07291,0.0277 -0.274206,0.0511 -0.492993,0.0605 v -0.001 c -0.06391,0.003 -0.132311,0.006 -0.19637,0.006 h -0.517281 l 0.04703,-0.35501 c 0.02591,-0.19536 0.06236,-0.37994 0.08113,-0.41032 0.02418,-0.0391 0.232405,-0.0564 0.471806,-0.0532 0.07482,0.001 0.151083,0.007 0.227377,0.0124 v -0.90483 c -0.01511,8e-5 -0.02439,0.001 -0.04031,0.001 h -0.51108 l 0.04858,-0.32505 c 0.02675,-0.1787 0.06273,-0.34799 0.0801,-0.3762 0.01553,-0.0252 0.203856,-0.044 0.422714,-0.0481 v -1.0263 c -0.04146,-3.1e-4 -0.07749,-9.8e-4 -0.130225,-10e-4 z"
       style="fill:#000000;stroke-width:0.0684042"
       id="path1173" /></g></svg>
